<svg width="116" height="51" viewBox="0 0 116 51" fill="none" xmlns="http://www.w3.org/2000/svg">
<rect x="49.5" y="50" width="49" height="49" rx="24.5" transform="rotate(-180 49.5 50)" fill="white"/>
<rect x="49.5" y="50" width="49" height="49" rx="24.5" transform="rotate(-180 49.5 50)" stroke="#CED1D8"/>
<path fill-rule="evenodd" clip-rule="evenodd" d="M24.7366 31.5362C24.3851 31.8877 23.8153 31.8877 23.4638 31.5362L18.0638 26.1362C17.7123 25.7847 17.7123 25.2149 18.0638 24.8634L23.4638 19.4634C23.8153 19.1119 24.3851 19.1119 24.7366 19.4634C25.0881 19.8149 25.0881 20.3847 24.7366 20.7362L20.873 24.5998L31.3002 24.5998C31.7973 24.5998 32.2002 25.0027 32.2002 25.4998C32.2002 25.9969 31.7973 26.3998 31.3002 26.3998L20.873 26.3998L24.7366 30.2634C25.0881 30.6149 25.0881 31.1847 24.7366 31.5362Z" fill="#CED1D8"/>
<rect x="66" y="0.5" width="50" height="50" rx="25" fill="#1D1E25"/>
<path fill-rule="evenodd" clip-rule="evenodd" d="M91.2634 19.4638C91.6149 19.1123 92.1847 19.1123 92.5362 19.4638L97.9362 24.8638C98.2877 25.2153 98.2877 25.7851 97.9362 26.1366L92.5362 31.5366C92.1847 31.8881 91.6149 31.8881 91.2634 31.5366C90.9119 31.1851 90.9119 30.6153 91.2634 30.2638L95.127 26.4002L84.6998 26.4002C84.2027 26.4002 83.7998 25.9973 83.7998 25.5002C83.7998 25.0031 84.2027 24.6002 84.6998 24.6002H95.127L91.2634 20.7366C90.9119 20.3851 90.9119 19.8153 91.2634 19.4638Z" fill="white"/>
</svg>
