<svg width="112" height="32" viewBox="0 0 112 32" fill="none" xmlns="http://www.w3.org/2000/svg">
<path opacity="0.1" fill-rule="evenodd" clip-rule="evenodd" d="M0 16.0002C0 7.16369 7.16344 0.000244141 16 0.000244141C24.8366 0.000244141 32 7.16369 32 16.0002C32 24.8368 24.8366 32.0002 16 32.0002C7.16344 32.0002 0 24.8368 0 16.0002Z" fill="#161A34"/>
<path fill-rule="evenodd" clip-rule="evenodd" d="M15.5208 13.0053L15.5544 13.559L14.9948 13.4912C12.9579 13.2313 11.1784 12.35 9.66756 10.8699L8.92891 10.1355L8.73865 10.6778C8.33575 11.8868 8.59316 13.1635 9.43253 14.0222C9.8802 14.4968 9.77948 14.5646 9.00725 14.2821C8.73865 14.1917 8.50363 14.1239 8.48124 14.1578C8.4029 14.2369 8.6715 15.2651 8.88414 15.6718C9.17513 16.2368 9.76828 16.7904 10.4174 17.1181L10.9658 17.3779L10.3167 17.3892C9.68994 17.3892 9.66756 17.4005 9.73471 17.6378C9.95854 18.3722 10.8427 19.1518 11.8276 19.4908L12.5214 19.7281L11.9171 20.0896C11.0218 20.6094 9.96973 20.9031 8.91772 20.9257C8.41409 20.937 8 20.9822 8 21.0161C8 21.1291 9.36538 21.7618 10.16 22.0104C12.5438 22.7448 15.3753 22.4285 17.5017 21.1743C19.0126 20.2817 20.5235 18.5078 21.2286 16.7904C21.6091 15.8752 21.9896 14.203 21.9896 13.4008C21.9896 12.8811 22.0232 12.8133 22.6499 12.1918C23.0192 11.8303 23.3662 11.4348 23.4333 11.3218C23.5452 11.1072 23.534 11.1072 22.9633 11.2992C22.012 11.6382 21.8777 11.593 22.3477 11.0846C22.6947 10.723 23.1088 10.0677 23.1088 9.8756C23.1088 9.84171 22.9409 9.8982 22.7506 9.99989C22.5492 10.1129 22.1015 10.2824 21.7658 10.384L21.1614 10.5761L20.613 10.2033C20.3108 9.99989 19.8856 9.77392 19.6617 9.70612C19.0909 9.54794 18.218 9.57054 17.7032 9.75132C16.3042 10.2598 15.4201 11.5704 15.5208 13.0053Z" fill="#161A34"/>
<path opacity="0.1" fill-rule="evenodd" clip-rule="evenodd" d="M40 16.0002C40 7.16369 47.1634 0.000244141 56 0.000244141C64.8366 0.000244141 72 7.16369 72 16.0002C72 24.8368 64.8366 32.0002 56 32.0002C47.1634 32.0002 40 24.8368 40 16.0002Z" fill="#161A34"/>
<path d="M51.546 9.88204C51.5224 8.81385 50.7586 8.00024 49.5182 8.00024C48.2777 8.00024 47.4668 8.81385 47.4668 9.88204C47.4668 10.9281 48.2538 11.7651 49.4711 11.7651H49.4943C50.7586 11.7651 51.546 10.9281 51.546 9.88204Z" fill="#161A34"/>
<path d="M51.3072 13.2522H47.6812V24.1467H51.3072V13.2522Z" fill="#161A34"/>
<path d="M60.2089 12.9963C62.5949 12.9963 64.3837 14.5538 64.3837 17.9001L64.3836 24.1466H60.7578V18.3181C60.7578 16.8541 60.2331 15.8551 58.9205 15.8551C57.9187 15.8551 57.3221 16.5286 57.06 17.179C56.9641 17.4121 56.9406 17.737 56.9406 18.0626V24.1469H53.3142C53.3142 24.1469 53.362 14.2747 53.3142 13.2525H56.9406V14.7956C57.4218 14.0538 58.2838 12.9963 60.2089 12.9963Z" fill="#161A34"/>
<path opacity="0.1" fill-rule="evenodd" clip-rule="evenodd" d="M80 16.0002C80 7.16369 87.1634 0.000244141 96 0.000244141C104.837 0.000244141 112 7.16369 112 16.0002C112 24.8368 104.837 32.0002 96 32.0002C87.1634 32.0002 80 24.8368 80 16.0002Z" fill="#161A34"/>
<path fill-rule="evenodd" clip-rule="evenodd" d="M96.0009 7.4668C93.6834 7.4668 93.3925 7.47693 92.4823 7.51835C91.5739 7.55995 90.9538 7.70378 90.4112 7.9148C89.8499 8.13276 89.3738 8.42432 88.8995 8.89881C88.4249 9.37313 88.1333 9.84922 87.9146 10.4103C87.7031 10.9531 87.5591 11.5733 87.5182 12.4814C87.4775 13.3917 87.4668 13.6827 87.4668 16.0002C87.4668 18.3178 87.4771 18.6077 87.5184 19.5179C87.5601 20.4264 87.704 21.0465 87.9148 21.5891C88.1329 22.1503 88.4245 22.6264 88.899 23.1007C89.3731 23.5754 89.8492 23.8677 90.4101 24.0856C90.9531 24.2967 91.5733 24.4405 92.4816 24.4821C93.3918 24.5235 93.6825 24.5336 95.9999 24.5336C98.3176 24.5336 98.6075 24.5235 99.5178 24.4821C100.426 24.4405 101.047 24.2967 101.59 24.0856C102.151 23.8677 102.626 23.5754 103.101 23.1007C103.575 22.6264 103.867 22.1503 104.085 21.5893C104.295 21.0465 104.439 20.4262 104.482 19.5181C104.523 18.6079 104.533 18.3178 104.533 16.0002C104.533 13.6827 104.523 13.3918 104.482 12.4816C104.439 11.5732 104.295 10.9531 104.085 10.4105C103.867 9.84922 103.575 9.37313 103.101 8.89881C102.626 8.42414 102.151 8.13258 101.589 7.9148C101.045 7.70378 100.425 7.55995 99.5165 7.51835C98.6063 7.47693 98.3165 7.4668 95.9983 7.4668H96.0009ZM95.2354 9.00457C95.4626 9.00421 95.7161 9.00457 96.0009 9.00457C98.2793 9.00457 98.5494 9.01274 99.4491 9.05363C100.281 9.09168 100.733 9.2307 101.033 9.3475C101.432 9.50217 101.716 9.68706 102.014 9.98573C102.313 10.2844 102.498 10.5688 102.653 10.9671C102.769 11.2675 102.909 11.7191 102.947 12.5511C102.987 13.4507 102.996 13.7209 102.996 15.9982C102.996 18.2756 102.987 18.5458 102.947 19.4454C102.909 20.2774 102.769 20.729 102.653 21.0294C102.498 21.4276 102.313 21.7112 102.014 22.0097C101.715 22.3084 101.432 22.4932 101.033 22.6479C100.733 22.7652 100.281 22.9039 99.4491 22.942C98.5495 22.9828 98.2793 22.9917 96.0009 22.9917C93.7223 22.9917 93.4522 22.9828 92.5527 22.942C91.7207 22.9036 91.2691 22.7645 90.9681 22.6477C90.5699 22.4931 90.2855 22.3082 89.9868 22.0095C89.6881 21.7108 89.5032 21.4271 89.3482 21.0287C89.2314 20.7282 89.0922 20.2767 89.0543 19.4447C89.0134 18.5451 89.0053 18.2749 89.0053 15.9961C89.0053 13.7173 89.0134 13.4485 89.0543 12.549C89.0924 11.717 89.2314 11.2654 89.3482 10.9646C89.5029 10.5664 89.6881 10.2819 89.9868 9.98324C90.2855 9.68457 90.5699 9.49968 90.9681 9.34466C91.2689 9.22732 91.7207 9.08866 92.5527 9.05043C93.3399 9.01488 93.645 9.00421 95.2354 9.00243V9.00457ZM100.556 10.4215C99.9906 10.4215 99.532 10.8796 99.532 11.4451C99.532 12.0105 99.9906 12.4691 100.556 12.4691C101.121 12.4691 101.58 12.0105 101.58 11.4451C101.58 10.8798 101.121 10.4215 100.556 10.4215ZM96.0009 11.6179C93.5808 11.6179 91.6187 13.5801 91.6187 16.0002C91.6187 18.4203 93.5808 20.3816 96.0009 20.3816C98.4211 20.3816 100.383 18.4203 100.383 16.0002C100.383 13.5801 98.4211 11.6179 96.0009 11.6179ZM96.0009 13.1557C97.5718 13.1557 98.8454 14.4292 98.8454 16.0002C98.8454 17.5711 97.5718 18.8447 96.0009 18.8447C94.4299 18.8447 93.1564 17.5711 93.1564 16.0002C93.1564 14.4292 94.4299 13.1557 96.0009 13.1557Z" fill="#161A34"/>
</svg>
